<mxfile host="app.diagrams.net" modified="2023-09-25T02:23:50.191Z" agent="Mozilla/5.0 (Macintosh; Intel Mac OS X 10_15_7) AppleWebKit/537.36 (KHTML, like Gecko) Chrome/116.0.0.0 Safari/537.36" etag="Rg9FBV16YLfX12cnvwF5" version="21.6.1" type="github">
  <diagram name="第 1 页" id="QnhTHNgwRGuJ7pIlYFSp">
    <mxGraphModel dx="1375" dy="815" grid="0" gridSize="10" guides="1" tooltips="1" connect="1" arrows="1" fold="1" page="1" pageScale="1" pageWidth="827" pageHeight="1169" math="0" shadow="0">
      <root>
        <mxCell id="0" />
        <mxCell id="1" parent="0" />
        <mxCell id="9ljFHylEy4iL0qxE7nny-4" value="plato-muster (公共基础库)" style="swimlane;whiteSpace=wrap;html=1;fillColor=#dae8fc;strokeColor=#6c8ebf;gradientColor=#7ea6e0;" vertex="1" parent="1">
          <mxGeometry x="9" y="329" width="450" height="280" as="geometry" />
        </mxCell>
        <mxCell id="9ljFHylEy4iL0qxE7nny-5" value="apis&lt;br&gt;接口封装" style="whiteSpace=wrap;html=1;" vertex="1" parent="9ljFHylEy4iL0qxE7nny-4">
          <mxGeometry x="20" y="40" width="120" height="60" as="geometry" />
        </mxCell>
        <mxCell id="9ljFHylEy4iL0qxE7nny-7" value="components&lt;br&gt;基础组件" style="whiteSpace=wrap;html=1;" vertex="1" parent="9ljFHylEy4iL0qxE7nny-4">
          <mxGeometry x="165" y="40" width="120" height="60" as="geometry" />
        </mxCell>
        <mxCell id="9ljFHylEy4iL0qxE7nny-8" value="hocs&lt;br&gt;高阶组件" style="whiteSpace=wrap;html=1;" vertex="1" parent="9ljFHylEy4iL0qxE7nny-4">
          <mxGeometry x="310" y="40" width="120" height="60" as="geometry" />
        </mxCell>
        <mxCell id="9ljFHylEy4iL0qxE7nny-9" value="hooks&lt;br&gt;react hooks" style="whiteSpace=wrap;html=1;" vertex="1" parent="9ljFHylEy4iL0qxE7nny-4">
          <mxGeometry x="20" y="120" width="120" height="60" as="geometry" />
        </mxCell>
        <mxCell id="9ljFHylEy4iL0qxE7nny-10" value="tools&lt;br&gt;&amp;nbsp;业务工具类" style="whiteSpace=wrap;html=1;" vertex="1" parent="9ljFHylEy4iL0qxE7nny-4">
          <mxGeometry x="165" y="120" width="120" height="60" as="geometry" />
        </mxCell>
        <mxCell id="9ljFHylEy4iL0qxE7nny-11" value="ui&lt;br&gt;&amp;nbsp;业务组件" style="whiteSpace=wrap;html=1;" vertex="1" parent="9ljFHylEy4iL0qxE7nny-4">
          <mxGeometry x="310" y="120" width="120" height="60" as="geometry" />
        </mxCell>
        <mxCell id="9ljFHylEy4iL0qxE7nny-12" value="utils&lt;br&gt;&amp;nbsp;基础工具类" style="whiteSpace=wrap;html=1;" vertex="1" parent="9ljFHylEy4iL0qxE7nny-4">
          <mxGeometry x="20" y="200" width="120" height="60" as="geometry" />
        </mxCell>
        <mxCell id="9ljFHylEy4iL0qxE7nny-13" value="natives&lt;br&gt;&amp;nbsp;端平台接口封装" style="whiteSpace=wrap;html=1;" vertex="1" parent="9ljFHylEy4iL0qxE7nny-4">
          <mxGeometry x="165" y="200" width="120" height="60" as="geometry" />
        </mxCell>
        <mxCell id="9ljFHylEy4iL0qxE7nny-14" value="libs&lt;br&gt;&amp;nbsp;js库封装" style="whiteSpace=wrap;html=1;" vertex="1" parent="9ljFHylEy4iL0qxE7nny-4">
          <mxGeometry x="310" y="200" width="120" height="60" as="geometry" />
        </mxCell>
        <mxCell id="9ljFHylEy4iL0qxE7nny-15" value="plato-library (基础sdk库)" style="swimlane;whiteSpace=wrap;html=1;startSize=23;fillColor=#dae8fc;gradientColor=#7ea6e0;strokeColor=#6c8ebf;" vertex="1" parent="1">
          <mxGeometry x="9" y="629" width="450" height="120" as="geometry" />
        </mxCell>
        <mxCell id="9ljFHylEy4iL0qxE7nny-16" value="address&lt;br&gt;地址组件" style="whiteSpace=wrap;html=1;" vertex="1" parent="9ljFHylEy4iL0qxE7nny-15">
          <mxGeometry x="20" y="40" width="120" height="60" as="geometry" />
        </mxCell>
        <mxCell id="9ljFHylEy4iL0qxE7nny-17" value="carts&lt;br&gt;加车组件" style="whiteSpace=wrap;html=1;" vertex="1" parent="9ljFHylEy4iL0qxE7nny-15">
          <mxGeometry x="165" y="40" width="120" height="60" as="geometry" />
        </mxCell>
        <mxCell id="9ljFHylEy4iL0qxE7nny-18" value="limiter&lt;br&gt;限流组件" style="whiteSpace=wrap;html=1;" vertex="1" parent="9ljFHylEy4iL0qxE7nny-15">
          <mxGeometry x="310" y="40" width="120" height="60" as="geometry" />
        </mxCell>
        <mxCell id="9ljFHylEy4iL0qxE7nny-25" value="plato-template (工程脚手架)" style="swimlane;whiteSpace=wrap;html=1;fillColor=#dae8fc;strokeColor=#6c8ebf;gradientColor=#7ea6e0;" vertex="1" parent="1">
          <mxGeometry x="9" y="109" width="450" height="200" as="geometry" />
        </mxCell>
        <mxCell id="9ljFHylEy4iL0qxE7nny-26" value="babel-preset-taro&lt;br&gt;babel基础定义" style="whiteSpace=wrap;html=1;" vertex="1" parent="9ljFHylEy4iL0qxE7nny-25">
          <mxGeometry x="20" y="40" width="120" height="60" as="geometry" />
        </mxCell>
        <mxCell id="9ljFHylEy4iL0qxE7nny-27" value="create-taro-app&lt;br&gt;cli命令行工具" style="whiteSpace=wrap;html=1;" vertex="1" parent="9ljFHylEy4iL0qxE7nny-25">
          <mxGeometry x="165" y="40" width="120" height="60" as="geometry" />
        </mxCell>
        <mxCell id="9ljFHylEy4iL0qxE7nny-28" value="eslint-config-taro&lt;br&gt;代码规范" style="whiteSpace=wrap;html=1;" vertex="1" parent="9ljFHylEy4iL0qxE7nny-25">
          <mxGeometry x="310" y="40" width="120" height="60" as="geometry" />
        </mxCell>
        <mxCell id="9ljFHylEy4iL0qxE7nny-29" value="taro-template-project&lt;br&gt;项目模版" style="whiteSpace=wrap;html=1;" vertex="1" parent="9ljFHylEy4iL0qxE7nny-25">
          <mxGeometry x="20" y="120" width="120" height="60" as="geometry" />
        </mxCell>
        <mxCell id="9ljFHylEy4iL0qxE7nny-30" value="taro-template&lt;br&gt;&amp;nbsp;taro依赖封装" style="whiteSpace=wrap;html=1;" vertex="1" parent="9ljFHylEy4iL0qxE7nny-25">
          <mxGeometry x="165" y="120" width="120" height="60" as="geometry" />
        </mxCell>
        <mxCell id="9ljFHylEy4iL0qxE7nny-31" value="tarojs-runtime-plugin&lt;br&gt;taro共享运行时" style="whiteSpace=wrap;html=1;" vertex="1" parent="9ljFHylEy4iL0qxE7nny-25">
          <mxGeometry x="310" y="120" width="120" height="60" as="geometry" />
        </mxCell>
        <mxCell id="9ljFHylEy4iL0qxE7nny-35" value="发布系统" style="swimlane;whiteSpace=wrap;html=1;fillColor=#d5e8d4;gradientColor=#97d077;strokeColor=#82b366;" vertex="1" parent="1">
          <mxGeometry x="479" y="109" width="160" height="200" as="geometry" />
        </mxCell>
        <mxCell id="9ljFHylEy4iL0qxE7nny-36" value="jdos&lt;br&gt;m站发布" style="whiteSpace=wrap;html=1;" vertex="1" parent="9ljFHylEy4iL0qxE7nny-35">
          <mxGeometry x="20" y="40" width="120" height="60" as="geometry" />
        </mxCell>
        <mxCell id="9ljFHylEy4iL0qxE7nny-37" value="毕升&lt;br&gt;小程序发布" style="whiteSpace=wrap;html=1;" vertex="1" parent="9ljFHylEy4iL0qxE7nny-35">
          <mxGeometry x="20" y="120" width="120" height="60" as="geometry" />
        </mxCell>
        <mxCell id="9ljFHylEy4iL0qxE7nny-42" value="自动化" style="swimlane;whiteSpace=wrap;html=1;fillColor=#d5e8d4;gradientColor=#97d077;strokeColor=#82b366;" vertex="1" parent="1">
          <mxGeometry x="479" y="329" width="160" height="200" as="geometry" />
        </mxCell>
        <mxCell id="9ljFHylEy4iL0qxE7nny-43" value="bamboo&lt;br&gt;提测/发布流水线" style="whiteSpace=wrap;html=1;" vertex="1" parent="9ljFHylEy4iL0qxE7nny-42">
          <mxGeometry x="20" y="40" width="120" height="60" as="geometry" />
        </mxCell>
        <mxCell id="9ljFHylEy4iL0qxE7nny-44" value="jdos部署编排&lt;br&gt;上线流程自动化" style="whiteSpace=wrap;html=1;" vertex="1" parent="9ljFHylEy4iL0qxE7nny-42">
          <mxGeometry x="20" y="120" width="120" height="60" as="geometry" />
        </mxCell>
        <mxCell id="9ljFHylEy4iL0qxE7nny-45" value="多端开发基础设施" style="text;html=1;align=center;verticalAlign=middle;resizable=0;points=[];autosize=1;strokeColor=none;fillColor=none;fontSize=20;fontStyle=1" vertex="1" parent="1">
          <mxGeometry x="324" y="42" width="180" height="40" as="geometry" />
        </mxCell>
        <mxCell id="9ljFHylEy4iL0qxE7nny-46" value="配置系统" style="swimlane;whiteSpace=wrap;html=1;fillColor=#d5e8d4;gradientColor=#97d077;strokeColor=#82b366;" vertex="1" parent="1">
          <mxGeometry x="479" y="549" width="160" height="200" as="geometry" />
        </mxCell>
        <mxCell id="9ljFHylEy4iL0qxE7nny-47" value="mpass&lt;br&gt;移动配置平台" style="whiteSpace=wrap;html=1;" vertex="1" parent="9ljFHylEy4iL0qxE7nny-46">
          <mxGeometry x="20" y="40" width="120" height="60" as="geometry" />
        </mxCell>
        <mxCell id="9ljFHylEy4iL0qxE7nny-48" value="奥德修斯&lt;br&gt;可视化配置平台" style="whiteSpace=wrap;html=1;" vertex="1" parent="9ljFHylEy4iL0qxE7nny-46">
          <mxGeometry x="20" y="120" width="120" height="60" as="geometry" />
        </mxCell>
        <mxCell id="9ljFHylEy4iL0qxE7nny-49" value="监控" style="swimlane;whiteSpace=wrap;html=1;fillColor=#d5e8d4;gradientColor=#97d077;strokeColor=#82b366;" vertex="1" parent="1">
          <mxGeometry x="659" y="109" width="160" height="200" as="geometry" />
        </mxCell>
        <mxCell id="9ljFHylEy4iL0qxE7nny-50" value="雅典娜&lt;br&gt;前端接口监控" style="whiteSpace=wrap;html=1;" vertex="1" parent="9ljFHylEy4iL0qxE7nny-49">
          <mxGeometry x="20" y="40" width="120" height="60" as="geometry" />
        </mxCell>
        <mxCell id="9ljFHylEy4iL0qxE7nny-51" value="烛龙&lt;br&gt;性能和异常监控" style="whiteSpace=wrap;html=1;" vertex="1" parent="9ljFHylEy4iL0qxE7nny-49">
          <mxGeometry x="20" y="120" width="120" height="60" as="geometry" />
        </mxCell>
        <mxCell id="9ljFHylEy4iL0qxE7nny-55" value="可视化" style="swimlane;whiteSpace=wrap;html=1;fillColor=#d5e8d4;gradientColor=#97d077;strokeColor=#82b366;" vertex="1" parent="1">
          <mxGeometry x="659" y="329" width="160" height="200" as="geometry" />
        </mxCell>
        <mxCell id="9ljFHylEy4iL0qxE7nny-56" value="ihub&lt;br&gt;物料市场" style="whiteSpace=wrap;html=1;" vertex="1" parent="9ljFHylEy4iL0qxE7nny-55">
          <mxGeometry x="20" y="40" width="120" height="60" as="geometry" />
        </mxCell>
        <mxCell id="9ljFHylEy4iL0qxE7nny-57" value="黄流数字化平台&lt;br&gt;楼层化搭建" style="whiteSpace=wrap;html=1;" vertex="1" parent="9ljFHylEy4iL0qxE7nny-55">
          <mxGeometry x="20" y="120" width="120" height="60" as="geometry" />
        </mxCell>
        <mxCell id="9ljFHylEy4iL0qxE7nny-60" value="更多" style="swimlane;whiteSpace=wrap;html=1;fillColor=#d5e8d4;gradientColor=#97d077;strokeColor=#82b366;" vertex="1" parent="1">
          <mxGeometry x="659" y="549" width="160" height="200" as="geometry" />
        </mxCell>
        <mxCell id="9ljFHylEy4iL0qxE7nny-61" value="..." style="whiteSpace=wrap;html=1;" vertex="1" parent="9ljFHylEy4iL0qxE7nny-60">
          <mxGeometry x="20" y="75" width="120" height="60" as="geometry" />
        </mxCell>
      </root>
    </mxGraphModel>
  </diagram>
</mxfile>
